# xmcd
# Copyright (C) 1995-1998 Ti Kan
#
# Track frame offsets:
#       150
#       9522
#       21607
#       36442
#       53530
#       65305
#       76512
#       86432
#       98757
#       118465
#       133247
#       146880
#       162222
#       185427
#       223950
#       242207
#       263925
#       283600
#       295697
#       318130
#
# Disc length: 4579 seconds
#
# Revision: 0
# Processed by: cddbd v1.5.2PL0 Copyright (c) Steve Scherf et al.
# Submitted via: CD-Import v1.0
#
DISCID=2711e114
DTITLE=Who - My Generation - The Very Best Of
DYEAR=1996
DGENRE=
TTITLE0=I Can't Explain
TTITLE1=Anyway, Anyhow, Anywhere
TTITLE2=My Generation
TTITLE3=Substitute
TTITLE4=I'm A Boy
TTITLE5=Boris The Spider
TTITLE6=Happy Jack
TTITLE7=Pictures Of Lily
TTITLE8=I Can See For Miles
TTITLE9=Magic Bus
TTITLE10=Pinball Wizard
TTITLE11=The Seeker
TTITLE12=Baba O'riley
TTITLE13=Won't Get Fooled Again
TTITLE14=Let's See Action
TTITLE15=5.15
TTITLE16=Join Together
TTITLE17=Squeeze Box
TTITLE18=Who Are You
TTITLE19=You Better You Bet
EXTD=
EXTT0=
EXTT1=
EXTT2=
EXTT3=
EXTT4=
EXTT5=
EXTT6=
EXTT7=
EXTT8=
EXTT9=
EXTT10=
EXTT11=
EXTT12=
EXTT13=
EXTT14=
EXTT15=
EXTT16=
EXTT17=
EXTT18=
EXTT19=
PLAYORDER=
